<?xml version="1.0" encoding="utf-8"?>
<!-- Generator: Adobe Illustrator 23.0.0, SVG Export Plug-In . SVG Version: 6.00 Build 0)  -->
<svg version="1.1" id="Capa_1" xmlns="http://www.w3.org/2000/svg" xmlns:xlink="http://www.w3.org/1999/xlink" x="0px" y="0px"
	 viewBox="0 0 2829.65 2516.78" style="enable-background:new 0 0 2829.65 2516.78;" xml:space="preserve">
<style type="text/css">
	.st0{clip-path:url(#SVGID_2_);fill:url(#SVGID_3_);}
	.st1{clip-path:url(#SVGID_5_);fill:url(#SVGID_6_);}
	.st2{clip-path:url(#SVGID_8_);fill:url(#SVGID_9_);}
	.st3{clip-path:url(#SVGID_11_);fill:url(#SVGID_12_);}
	.st4{clip-path:url(#SVGID_14_);fill:url(#SVGID_15_);}
	.st5{clip-path:url(#SVGID_17_);fill:url(#SVGID_18_);}
	.st6{clip-path:url(#SVGID_20_);fill:url(#SVGID_21_);}
</style>
<g>
	<defs>
		<path id="SVGID_1_" d="M2586.83,983.99c0.25,0,0.83-0.37,0.32-0.37C2586.9,983.62,2586.32,983.99,2586.83,983.99"/>
	</defs>
	<clipPath id="SVGID_2_">
		<use xlink:href="#SVGID_1_"  style="overflow:visible;"/>
	</clipPath>
	
		<linearGradient id="SVGID_3_" gradientUnits="userSpaceOnUse" x1="0" y1="2516.7815" x2="1" y2="2516.7815" gradientTransform="matrix(0.727 0 0 -0.727 2586.6255 2813.5984)">
		<stop  offset="0" style="stop-color:#02EDF3"/>
		<stop  offset="0.2599" style="stop-color:#01B6C6"/>
		<stop  offset="0.7714" style="stop-color:#004E70"/>
		<stop  offset="1" style="stop-color:#00244E"/>
	</linearGradient>
	<rect x="2586.32" y="983.62" class="st0" width="1.35" height="0.37"/>
</g>
<g>
	<defs>
		<path id="SVGID_4_" d="M2553.13,968.84c0.24,0,0.83-0.37,0.32-0.37C2553.21,968.47,2552.62,968.84,2553.13,968.84"/>
	</defs>
	<clipPath id="SVGID_5_">
		<use xlink:href="#SVGID_4_"  style="overflow:visible;"/>
	</clipPath>
	
		<linearGradient id="SVGID_6_" gradientUnits="userSpaceOnUse" x1="0" y1="2516.7825" x2="1" y2="2516.7825" gradientTransform="matrix(0.727 0 0 -0.727 2552.9285 2798.4507)">
		<stop  offset="0" style="stop-color:#02EDF3"/>
		<stop  offset="0.2599" style="stop-color:#01B6C6"/>
		<stop  offset="0.7714" style="stop-color:#004E70"/>
		<stop  offset="1" style="stop-color:#00244E"/>
	</linearGradient>
	<rect x="2552.62" y="968.47" class="st1" width="1.34" height="0.37"/>
</g>
<g>
	<defs>
		<path id="SVGID_7_" d="M1789.99,650.1c0.25,0,0.83-0.37,0.32-0.37C1790.06,649.74,1789.48,650.1,1789.99,650.1"/>
	</defs>
	<clipPath id="SVGID_8_">
		<use xlink:href="#SVGID_7_"  style="overflow:visible;"/>
	</clipPath>
	
		<linearGradient id="SVGID_9_" gradientUnits="userSpaceOnUse" x1="0" y1="2516.7817" x2="1" y2="2516.7817" gradientTransform="matrix(0.7238 0 0 -0.7238 1789.7839 2471.6689)">
		<stop  offset="0" style="stop-color:#02EDF3"/>
		<stop  offset="0.2599" style="stop-color:#01B6C6"/>
		<stop  offset="0.7714" style="stop-color:#004E70"/>
		<stop  offset="1" style="stop-color:#00244E"/>
	</linearGradient>
	<rect x="1789.48" y="649.74" class="st2" width="1.34" height="0.37"/>
</g>
<g>
	<defs>
		<path id="SVGID_10_" d="M697.08,1275.91c0,64.21,6.29,126.91,18.26,187.46l185.88-185.88l-186.23-186.21
			C703.26,1150.98,697.06,1212.71,697.08,1275.91"/>
	</defs>
	<clipPath id="SVGID_11_">
		<use xlink:href="#SVGID_10_"  style="overflow:visible;"/>
	</clipPath>
	
		<linearGradient id="SVGID_12_" gradientUnits="userSpaceOnUse" x1="-13.4007" y1="2508.0332" x2="0.3277" y2="2508.0332" gradientTransform="matrix(44.3652 71.9537 71.9537 -44.3652 -179601.9688 112646.1016)">
		<stop  offset="0" style="stop-color:#50FF71"/>
		<stop  offset="0.3171" style="stop-color:#35B665"/>
		<stop  offset="0.7889" style="stop-color:#0F4E55"/>
		<stop  offset="1" style="stop-color:#00244E"/>
	</linearGradient>
	<polygon class="st3" points="844.98,1000.07 1067.45,1360.88 753.3,1554.57 530.83,1193.77 	"/>
</g>
<g>
	<defs>
		<path id="SVGID_13_" d="M928.77,654.79l269.21,269.2c97.7-120.07,244.5-196.84,409.52-196.84c279.17,0,510.27,224.43,531.8,506
			l328.89,341.34c30.23-93.89,46.69-193.94,46.69-298.59c0-513.86-407.4-932.57-907.38-932.57
			C1337.69,343.33,1095.45,463.81,928.77,654.79"/>
	</defs>
	<clipPath id="SVGID_14_">
		<use xlink:href="#SVGID_13_"  style="overflow:visible;"/>
	</clipPath>
	
		<linearGradient id="SVGID_15_" gradientUnits="userSpaceOnUse" x1="-13.4007" y1="2518.387" x2="0.3277" y2="2518.387" gradientTransform="matrix(44.3652 71.9537 71.9537 -44.3652 -179536.1875 112605.5391)">
		<stop  offset="0" style="stop-color:#50FF71"/>
		<stop  offset="0.3171" style="stop-color:#35B665"/>
		<stop  offset="0.7889" style="stop-color:#0F4E55"/>
		<stop  offset="1" style="stop-color:#00244E"/>
	</linearGradient>
	<polygon class="st4" points="2077.99,-365.25 3064.9,1235.37 1365.67,2283.09 378.76,682.46 	"/>
</g>
<g>
	<defs>
		<path id="SVGID_16_" d="M1537.23,1167.36l-2.43,2.49c-71.19,73.17-71.19,189.71,0,262.89l319.61,328.51
			c-74.07,41.23-157.4,63.44-246.91,63.44c-164.55,0-310.98-75.36-408.7-194.53l-269.8,269.82
			c166.66,191.31,408.82,311.69,678.51,311.69c194.44,0,373.43-63.43,521.57-168.1c100.99-75.49,189.77-169.74,254.44-279.54
			l-396.88-411.94l0.25-0.25l-179.49-184.47c-37-38.04-86.05-57.06-135.09-57.06C1623.28,1110.3,1574.23,1129.31,1537.23,1167.36"/>
	</defs>
	<clipPath id="SVGID_17_">
		<use xlink:href="#SVGID_16_"  style="overflow:visible;"/>
	</clipPath>
	
		<linearGradient id="SVGID_18_" gradientUnits="userSpaceOnUse" x1="-13.4007" y1="2513.8689" x2="0.3277" y2="2513.8689" gradientTransform="matrix(44.3652 71.9537 71.9537 -44.3652 -179572.2344 112627.7734)">
		<stop  offset="0" style="stop-color:#50FF71"/>
		<stop  offset="0.3171" style="stop-color:#35B665"/>
		<stop  offset="0.7889" style="stop-color:#0F4E55"/>
		<stop  offset="1" style="stop-color:#00244E"/>
	</linearGradient>
	<polygon class="st5" points="1982.88,460.5 2875.55,1908.28 1329.66,2861.45 436.99,1413.67 	"/>
</g>
<g>
	<defs>
		<path id="SVGID_19_" d="M341.8,392.95c-66.15,66.17-66.15,173.42,0,239.58l644.98,644.96L341.8,1922.45
			c-66.15,66.17-66.15,173.43,0,239.59c33.08,33.07,76.44,49.61,119.79,49.61s86.71-16.54,119.78-49.61l764.76-764.76
			c66.16-66.16,66.16-173.42,0-239.58L581.37,392.95c-33.07-33.07-76.43-49.61-119.78-49.61S374.88,359.88,341.8,392.95"/>
	</defs>
	<clipPath id="SVGID_20_">
		<use xlink:href="#SVGID_19_"  style="overflow:visible;"/>
	</clipPath>
	
		<linearGradient id="SVGID_21_" gradientUnits="userSpaceOnUse" x1="-13.4007" y1="2508.5884" x2="0.3277" y2="2508.5884" gradientTransform="matrix(44.3652 71.9537 71.9537 -44.3652 -179609.5 112650.75)">
		<stop  offset="0" style="stop-color:#50FF71"/>
		<stop  offset="0.3171" style="stop-color:#35B665"/>
		<stop  offset="0.7889" style="stop-color:#0F4E55"/>
		<stop  offset="1" style="stop-color:#00244E"/>
	</linearGradient>
	<polygon class="st6" points="1099.2,-164.45 2246.95,1697.02 588.74,2719.44 -559,857.97 	"/>
</g>
</svg>
