<svg width="40" height="40" viewBox="0 0 40 40" fill="none" xmlns="http://www.w3.org/2000/svg">
<rect width="40" height="40" rx="16" fill="#13DC38" fill-opacity="0.1"/>
<path fill-rule="evenodd" clip-rule="evenodd" d="M15.75 17.75H13C11.895 17.75 11 16.855 11 15.75V13C11 11.895 11.895 11 13 11H15.75C16.855 11 17.75 11.895 17.75 13V15.75C17.75 16.855 16.855 17.75 15.75 17.75Z" stroke="#13DC38" stroke-width="1.5" stroke-linecap="round" stroke-linejoin="round"/>
<path fill-rule="evenodd" clip-rule="evenodd" d="M27 17.75H24.25C23.145 17.75 22.25 16.855 22.25 15.75V13C22.25 11.895 23.145 11 24.25 11H27C28.105 11 29 11.895 29 13V15.75C29 16.855 28.105 17.75 27 17.75Z" stroke="#13DC38" stroke-width="1.5" stroke-linecap="round" stroke-linejoin="round"/>
<path fill-rule="evenodd" clip-rule="evenodd" d="M15.75 29H13C11.895 29 11 28.105 11 27V24.25C11 23.145 11.895 22.25 13 22.25H15.75C16.855 22.25 17.75 23.145 17.75 24.25V27C17.75 28.105 16.855 29 15.75 29Z" stroke="#13DC38" stroke-width="1.5" stroke-linecap="round" stroke-linejoin="round"/>
<path fill-rule="evenodd" clip-rule="evenodd" d="M27 29H24.25C23.145 29 22.25 28.105 22.25 27V24.25C22.25 23.145 23.145 22.25 24.25 22.25H27C28.105 22.25 29 23.145 29 24.25V27C29 28.105 28.105 29 27 29Z" stroke="#13DC38" stroke-width="1.5" stroke-linecap="round" stroke-linejoin="round"/>
</svg>
